<svg xmlns="http://www.w3.org/2000/svg" viewBox="0 0 400 520">
  <rect width="400" height="520" fill="#fdfcf8"/>
  <rect x="16" y="16" width="368" height="488" rx="20" fill="#ffffff" stroke="#e7e5e4" stroke-width="2"/>
  <text x="200" y="60" text-anchor="middle" font-family="Arial, sans-serif" font-size="24" font-weight="bold" fill="#0f766e">Cartoon Stickers Fun Sheet</text>
  <circle cx="100" cy="140" r="25" fill="#fde68a"/>
  <circle cx="100" cy="140" r="18" fill="#fbbf24"/>
  <circle cx="90" cy="135" r="3" fill="#1f2937"/>
  <circle cx="110" cy="135" r="3" fill="#1f2937"/>
  <path d="M90,148 Q100,155 110,148" fill="none" stroke="#1f2937" stroke-width="2"/>
  <circle cx="200" cy="140" r="25" fill="#fecaca"/>
  <path d="M185,145 Q200,160 215,145" fill="none" stroke="#ef4444" stroke-width="3"/>
  <circle cx="200" cy="135" r="3" fill="#1f2937"/><circle cx="190" cy="135" r="3" fill="#1f2937"/><circle cx="210" cy="135" r="3" fill="#1f2937"/>
  <circle cx="300" cy="140" r="25" fill="#bfdbfe"/>
  <path d="M285,140 L315,140" stroke="#3b82f6" stroke-width="3"/>
  <path d="M300,125 L300,155" stroke="#3b82f6" stroke-width="3"/>
  <rect x="80" y="220" width="60" height="60" rx="8" fill="#dcfce7" stroke="#86efac" stroke-width="2"/>
  <text x="110" y="260" text-anchor="middle" font-family="Arial" font-size="12" fill="#14532d">STAR</text>
</svg>
