<svg xmlns="http://www.w3.org/2000/svg" viewBox="0 0 400 520">
  <rect width="400" height="520" fill="#fdfcf8"/>
  <rect x="16" y="16" width="368" height="488" rx="20" fill="#ffffff" stroke="#e7e5e4" stroke-width="2"/>
  <text x="200" y="60" text-anchor="middle" font-family="Arial, sans-serif" font-size="24" font-weight="bold" fill="#0f766e">Word Search - Animals</text>
  <g transform="translate(90,110)" font-family="Arial, sans-serif" font-size="18" font-weight="bold" fill="#334155">
    <text x="0" y="0">C</text><text x="24" y="0">A</text><text x="48" y="0">T</text><text x="72" y="0">D</text><text x="96" y="0">O</text>
    <text x="0" y="28">B</text><text x="24" y="28">I</text><text x="48" y="28">R</text><text x="72" y="28">D</text><text x="96" y="28">G</text>
    <text x="0" y="56">F</text><text x="24" y="56">S</text><text x="48" y="56">H</text><text x="72" y="56">A</text><text x="96" y="56">R</text>
    <text x="0" y="84">I</text><text x="24" y="84">E</text><text x="48" y="84">E</text><text x="72" y="84">K</text><text x="96" y="84">O</text>
    <text x="0" y="112">O</text><text x="24" y="112">L</text><text x="48" y="112">P</text><text x="72" y="112">I</text><text x="96" y="112">G</text>
  </g>
  <text x="200" y="320" text-anchor="middle" font-family="Arial, sans-serif" font-size="16" fill="#64748b">Find: CAT, BIRD, PIG, FISH</text>
  <text x="200" y="430" text-anchor="middle" font-family="Arial, sans-serif" font-size="14" fill="#64748b">Circle each animal word in the grid</text>
</svg>
